<svg width="373" height="48" viewBox="0 0 373 48" fill="none" xmlns="http://www.w3.org/2000/svg">
<path d="M0.0454545 47V0.454544H9.88636V38.8864H29.8409V47H0.0454545ZM36.358 47V0.454544H67.7216V8.56818H46.1989V19.6591H66.108V27.7727H46.1989V38.8864H67.8125V47H36.358ZM83.5682 47H73.0227L89.0909 0.454544H101.773L117.818 47H107.273L95.6136 11.0909H95.25L83.5682 47ZM82.9091 28.7045H107.818V36.3864H82.9091V28.7045ZM123.42 47V0.454544H141.784C145.299 0.454544 148.299 1.08333 150.784 2.34091C153.284 3.58333 155.186 5.34848 156.489 7.63636C157.807 9.90909 158.466 12.5833 158.466 15.6591C158.466 18.75 157.799 21.4091 156.466 23.6364C155.133 25.8485 153.201 27.5455 150.67 28.7273C148.155 29.9091 145.11 30.5 141.534 30.5H129.239V22.5909H139.943C141.822 22.5909 143.383 22.3333 144.625 21.8182C145.867 21.303 146.792 20.5303 147.398 19.5C148.019 18.4697 148.33 17.1894 148.33 15.6591C148.33 14.1136 148.019 12.8106 147.398 11.75C146.792 10.6894 145.86 9.88636 144.602 9.34091C143.36 8.7803 141.792 8.5 139.898 8.5H133.261V47H123.42ZM148.557 25.8182L160.125 47H149.261L137.943 25.8182H148.557ZM204.352 0.454544V47H195.852L175.602 17.7045H175.261V47H165.42V0.454544H174.057L194.148 29.7273H194.557V0.454544H204.352ZM234.051 19.8864V27.5682H212.824V19.8864H234.051Z" fill="#794FF2"/>
<path d="M242.483 47V0.454544H252.324V19.6591H272.301V0.454544H282.119V47H272.301V27.7727H252.324V47H242.483ZM318.983 0.454544H328.824V30.6818C328.824 34.0758 328.013 37.0455 326.392 39.5909C324.786 42.1364 322.536 44.1212 319.642 45.5455C316.748 46.9545 313.377 47.6591 309.528 47.6591C305.665 47.6591 302.286 46.9545 299.392 45.5455C296.498 44.1212 294.248 42.1364 292.642 39.5909C291.036 37.0455 290.233 34.0758 290.233 30.6818V0.454544H300.074V29.8409C300.074 31.6136 300.46 33.1894 301.233 34.5682C302.021 35.947 303.127 37.0303 304.551 37.8182C305.975 38.6061 307.634 39 309.528 39C311.438 39 313.097 38.6061 314.506 37.8182C315.93 37.0303 317.028 35.947 317.801 34.5682C318.589 33.1894 318.983 31.6136 318.983 29.8409V0.454544ZM336.92 47V0.454544H355.557C358.981 0.454544 361.837 0.96212 364.125 1.97727C366.413 2.99242 368.133 4.40151 369.284 6.20454C370.436 7.99242 371.011 10.053 371.011 12.3864C371.011 14.2045 370.648 15.803 369.92 17.1818C369.193 18.5455 368.193 19.6667 366.92 20.5455C365.663 21.4091 364.223 22.0227 362.602 22.3864V22.8409C364.375 22.9167 366.034 23.4167 367.58 24.3409C369.14 25.2652 370.405 26.5606 371.375 28.2273C372.345 29.8788 372.83 31.8485 372.83 34.1364C372.83 36.6061 372.216 38.8106 370.989 40.75C369.777 42.6742 367.981 44.197 365.602 45.3182C363.223 46.4394 360.292 47 356.807 47H336.92ZM346.761 38.9545H354.784C357.527 38.9545 359.527 38.4318 360.784 37.3864C362.042 36.3258 362.67 34.9167 362.67 33.1591C362.67 31.8712 362.36 30.7348 361.739 29.75C361.117 28.7652 360.231 27.9924 359.08 27.4318C357.943 26.8712 356.587 26.5909 355.011 26.5909H346.761V38.9545ZM346.761 19.9318H354.057C355.405 19.9318 356.602 19.697 357.648 19.2273C358.708 18.7424 359.542 18.0606 360.148 17.1818C360.769 16.303 361.08 15.25 361.08 14.0227C361.08 12.3409 360.481 10.9848 359.284 9.95454C358.102 8.92424 356.42 8.40909 354.239 8.40909H346.761V19.9318Z" fill="#0F0F10"/>
</svg>
