<svg width="187" height="25" viewBox="0 0 187 25" fill="none" xmlns="http://www.w3.org/2000/svg">
<path d="M0.0227273 24V0.727272H4.94318V19.9432H14.9205V24H0.0227273ZM18.179 24V0.727272H33.8608V4.78409H23.0994V10.3295H33.054V14.3864H23.0994V19.9432H33.9062V24H18.179ZM41.7841 24H36.5114L44.5455 0.727272H50.8864L58.9091 24H53.6364L47.8068 6.04545H47.625L41.7841 24ZM41.4545 14.8523H53.9091V18.6932H41.4545V14.8523ZM61.7102 24V0.727272H70.892C72.6496 0.727272 74.1496 1.04167 75.392 1.67045C76.642 2.29167 77.5928 3.17424 78.2443 4.31818C78.9034 5.45454 79.233 6.79167 79.233 8.32955C79.233 9.875 78.8996 11.2045 78.233 12.3182C77.5663 13.4242 76.6004 14.2727 75.3352 14.8636C74.0777 15.4545 72.5549 15.75 70.767 15.75H64.6193V11.7955H69.9716C70.911 11.7955 71.6913 11.6667 72.3125 11.4091C72.9337 11.1515 73.3958 10.7652 73.6989 10.25C74.0095 9.73485 74.1648 9.0947 74.1648 8.32955C74.1648 7.55682 74.0095 6.9053 73.6989 6.375C73.3958 5.8447 72.9299 5.44318 72.3011 5.17045C71.6799 4.89015 70.8958 4.75 69.9489 4.75H66.6307V24H61.7102ZM74.2784 13.4091L80.0625 24H74.6307L68.9716 13.4091H74.2784ZM102.176 0.727272V24H97.9261L87.8011 9.35227H87.6307V24H82.7102V0.727272H87.0284L97.0739 15.3636H97.2784V0.727272H102.176ZM117.026 10.4432V14.2841H106.412V10.4432H117.026Z" fill="#794FF2"/>
<path d="M121.241 24V0.727272H126.162V10.3295H136.151V0.727272H141.06V24H136.151V14.3864H126.162V24H121.241ZM159.491 0.727272H164.412V15.8409C164.412 17.5379 164.007 19.0227 163.196 20.2955C162.393 21.5682 161.268 22.5606 159.821 23.2727C158.374 23.9773 156.688 24.3295 154.764 24.3295C152.832 24.3295 151.143 23.9773 149.696 23.2727C148.249 22.5606 147.124 21.5682 146.321 20.2955C145.518 19.0227 145.116 17.5379 145.116 15.8409V0.727272H150.037V15.4205C150.037 16.3068 150.23 17.0947 150.616 17.7841C151.01 18.4735 151.563 19.0152 152.276 19.4091C152.988 19.803 153.817 20 154.764 20C155.719 20 156.548 19.803 157.253 19.4091C157.965 19.0152 158.514 18.4735 158.901 17.7841C159.295 17.0947 159.491 16.3068 159.491 15.4205V0.727272ZM168.46 24V0.727272H177.778C179.491 0.727272 180.919 0.98106 182.062 1.48864C183.206 1.99621 184.066 2.70076 184.642 3.60227C185.218 4.49621 185.506 5.52652 185.506 6.69318C185.506 7.60227 185.324 8.40152 184.96 9.09091C184.597 9.77273 184.097 10.3333 183.46 10.7727C182.831 11.2045 182.112 11.5114 181.301 11.6932V11.9205C182.188 11.9583 183.017 12.2083 183.79 12.6705C184.57 13.1326 185.203 13.7803 185.688 14.6136C186.172 15.4394 186.415 16.4242 186.415 17.5682C186.415 18.803 186.108 19.9053 185.494 20.875C184.888 21.8371 183.991 22.5985 182.801 23.1591C181.612 23.7197 180.146 24 178.403 24H168.46ZM173.381 19.9773H177.392C178.763 19.9773 179.763 19.7159 180.392 19.1932C181.021 18.6629 181.335 17.9583 181.335 17.0795C181.335 16.4356 181.18 15.8674 180.869 15.375C180.559 14.8826 180.116 14.4962 179.54 14.2159C178.972 13.9356 178.294 13.7955 177.506 13.7955H173.381V19.9773ZM173.381 10.4659H177.028C177.703 10.4659 178.301 10.3485 178.824 10.1136C179.354 9.87121 179.771 9.5303 180.074 9.09091C180.384 8.65152 180.54 8.125 180.54 7.51136C180.54 6.67045 180.241 5.99242 179.642 5.47727C179.051 4.96212 178.21 4.70454 177.119 4.70454H173.381V10.4659Z" fill="#0F0F10"/>
</svg>
